<?xml version="1.0" encoding="utf-8"?>
<!-- Generator: Adobe Illustrator 21.0.0, SVG Export Plug-In . SVG Version: 6.00 Build 0)  -->
<svg version="1.1" id="Layer_1" xmlns="http://www.w3.org/2000/svg" xmlns:xlink="http://www.w3.org/1999/xlink" x="0px" y="0px"
	 viewBox="0 0 213.72 218.5" style="enable-background:new 0 0 213.72 218.5;" xml:space="preserve">
<style type="text/css">
	.st0{fill:url(#SVGID_1_);}
	.st1{fill:url(#SVGID_2_);}
	.st2{fill:url(#SVGID_3_);}
	.st3{fill:#194970;}
	.st4{fill:url(#SVGID_4_);}
</style>
<linearGradient id="SVGID_1_" gradientUnits="userSpaceOnUse" x1="-7.4067" y1="84.5865" x2="54.8702" y2="84.5865">
	<stop  offset="0.3911" style="stop-color:#4A69BD"/>
	<stop  offset="0.9959" style="stop-color:#1ABC9C"/>
</linearGradient>
<path class="st0" d="M58.38,73.95c0,0-12.74-9.91-20.88-2.12c0,0-15.22,15.92-21.58,18.05c0,0,26.18,26.18,46.35-5.31
	c0,0-15.22,47.77-62.28,2.12c0,0,14.15-2.12,26.18-17.69C26.18,69,41.4,52.02,58.38,73.95z"/>
<linearGradient id="SVGID_2_" gradientUnits="userSpaceOnUse" x1="26.4292" y1="82.1449" x2="52.6139" y2="82.1449">
	<stop  offset="0.3911" style="stop-color:#4A69BD"/>
	<stop  offset="0.9959" style="stop-color:#1ABC9C"/>
</linearGradient>
<path class="st1" d="M59.45,77.49c0,0-13.8,7.08-26.18,9.2C33.26,86.69,53.43,88.46,59.45,77.49z"/>
<linearGradient id="SVGID_3_" gradientUnits="userSpaceOnUse" x1="55.7842" y1="123.916" x2="137.2923" y2="123.916">
	<stop  offset="0.3911" style="stop-color:#4A69BD"/>
	<stop  offset="0.9959" style="stop-color:#1ABC9C"/>
</linearGradient>
<path class="st2" d="M63.34,92c0,0-42.46,76.43,73.95,73.25c0,0-14.86-16.98-12.74-33.97c0,0,8.49-58.38-41.75-47.42
	c0,0,23.35,3.18,24.77,30.78c0,0,1.06,29.72,6.02,37.86C113.58,152.51,58.03,160.65,63.34,92z"/>
<rect x="113.76" y="186.65" class="st3" width="41.05" height="5.66"/>
<rect x="113.76" y="196.21" class="st3" width="41.05" height="5.66"/>
<path class="st3" d="M154.81,205.41v5.66h-10.66c-1.23,4.29-5.18,7.43-9.87,7.43c-4.68,0-8.64-3.14-9.87-7.43h-10.66v-5.66H154.81z"
	/>
<linearGradient id="SVGID_4_" gradientUnits="userSpaceOnUse" x1="66.9196" y1="6.5739" x2="208.1189" y2="142.3483">
	<stop  offset="0.0973" style="stop-color:#4A69BD"/>
	<stop  offset="0.3504" style="stop-color:#368BAF"/>
	<stop  offset="0.6011" style="stop-color:#27A6A5"/>
	<stop  offset="0.8239" style="stop-color:#1DB69E"/>
	<stop  offset="0.9959" style="stop-color:#1ABC9C"/>
</linearGradient>
<path class="st4" d="M211.54,60.79c-1.6-8.14-4.48-15.81-8.4-22.78C190.36,15.29,166.45,0,139.06,0C98.22,0,65.11,34,65.11,75.95
	c0,2.12,0.08,4.21,0.25,6.29c0.19,2.39,0.49,4.75,0.89,7.08c1.2,5.39,2.75,10.77,4.62,16.07c0,0,0,0.01,0,0.01
	c4.03,9.82,10.01,18.59,17.45,25.8C78.28,118.73,72.18,102.3,72.18,84.3c0-38.55,27.95-69.87,62.65-70.48
	c0.35-0.01,0.7-0.01,1.04-0.01c16.17,0,30.94,6.68,42.17,17.67c0.03,0.03,0.05,0.05,0.08,0.08c14.84,13.73,24.27,34.22,24.27,57.11
	c0,28.04-14.14,52.49-35.08,65.31c-5.35,3.54-5.79,13-5.79,13c-0.22,4.36-2.99,9.31-5,12.35c-0.35,0.55-0.73,1.11-1.15,1.68
	c-0.09,0.12-0.18,0.24-0.27,0.36c-0.41,0.55-0.66,0.87-0.66,0.87l-0.01-0.02c-0.05,0.06-0.1,0.13-0.16,0.19
	c0.08-0.07,0.85-0.74,1.96-1.81c2.24-2.14,5.85-5.94,8.13-9.72c1.04-1.73,1.69-3.29,1.93-4.81c0,0,0.29-1.36,1.13-3.18
	c0.97-2.14,2.69-4.93,5.56-6.92c0.01,0,0.01-0.01,0.02-0.01c3.91-2.38,7.61-5.11,11.08-8.14c18.09-15.83,29.63-39.94,29.63-66.95
	C213.72,73.94,212.97,67.22,211.54,60.79z"/>
</svg>
