<?xml version="1.0" encoding="utf-8"?>
<!-- Generator: Adobe Illustrator 21.0.0, SVG Export Plug-In . SVG Version: 6.00 Build 0)  -->
<svg version="1.1" id="Layer_1" xmlns="http://www.w3.org/2000/svg" xmlns:xlink="http://www.w3.org/1999/xlink" x="0px" y="0px"
	 viewBox="0 0 429 438.59" style="enable-background:new 0 0 429 438.59;" xml:space="preserve">
<style type="text/css">
	.st0{fill:url(#SVGID_1_);}
	.st1{fill:url(#SVGID_2_);}
	.st2{fill:url(#SVGID_3_);}
	.st3{fill:#194970;}
	.st4{fill:url(#SVGID_4_);}
</style>
<g>
	<g>
		<linearGradient id="SVGID_1_" gradientUnits="userSpaceOnUse" x1="-84.6854" y1="169.7881" x2="40.3212" y2="169.7881">
			<stop  offset="0.0165" style="stop-color:#FF7B41"/>
			<stop  offset="0.1553" style="stop-color:#FF7241"/>
			<stop  offset="0.3856" style="stop-color:#FF5841"/>
			<stop  offset="0.3878" style="stop-color:#FF5841"/>
			<stop  offset="0.7196" style="stop-color:#FF5841"/>
			<stop  offset="0.9959" style="stop-color:#FF7B41"/>
		</linearGradient>
		<path class="st0" d="M117.19,148.45c0,0-25.57-19.89-41.91-4.26c0,0-30.54,31.96-43.33,36.22c0,0,52.56,52.56,93.04-10.65
			c0,0-30.54,95.89-125.01,4.26c0,0,28.41-4.26,52.56-35.51C52.56,138.5,83.1,104.41,117.19,148.45z"/>
		<linearGradient id="SVGID_2_" gradientUnits="userSpaceOnUse" x1="66.7649" y1="164.8871" x2="119.3245" y2="164.8871">
			<stop  offset="0.0165" style="stop-color:#FF7B41"/>
			<stop  offset="0.1553" style="stop-color:#FF7241"/>
			<stop  offset="0.3856" style="stop-color:#FF5841"/>
			<stop  offset="0.3878" style="stop-color:#FF5841"/>
			<stop  offset="0.7196" style="stop-color:#FF5841"/>
			<stop  offset="0.9959" style="stop-color:#FF7B41"/>
		</linearGradient>
		<path class="st1" d="M119.32,155.55c0,0-27.7,14.21-52.56,18.47C66.76,174.01,107.25,177.57,119.32,155.55z"/>
		<linearGradient id="SVGID_3_" gradientUnits="userSpaceOnUse" x1="173.3603" y1="269.5045" x2="324.7362" y2="207.4304">
			<stop  offset="0.0165" style="stop-color:#FF7B41"/>
			<stop  offset="0.1553" style="stop-color:#FF7241"/>
			<stop  offset="0.3856" style="stop-color:#FF5841"/>
			<stop  offset="0.3878" style="stop-color:#FF5841"/>
			<stop  offset="0.7196" style="stop-color:#FF5841"/>
			<stop  offset="0.9959" style="stop-color:#FF7B41"/>
		</linearGradient>
		<path class="st2" d="M127.14,184.67c0,0-85.23,153.42,148.45,147.02c0,0-29.83-34.09-25.57-68.19c0,0,17.05-117.19-83.81-95.18
			c0,0,46.88,6.39,49.72,61.79c0,0,2.13,59.66,12.07,76C228,306.12,116.48,322.46,127.14,184.67z"/>
		<rect x="228.35" y="374.66" class="st3" width="82.39" height="11.36"/>
		<rect x="228.35" y="393.84" class="st3" width="82.39" height="11.36"/>
		<path class="st3" d="M310.74,412.31v11.36h-21.39c-2.46,8.62-10.4,14.92-19.8,14.92s-17.34-6.3-19.8-14.92h-21.39v-11.36H310.74z"
			/>
		<linearGradient id="SVGID_4_" gradientUnits="userSpaceOnUse" x1="127.5975" y1="6.7259" x2="411.0227" y2="279.2619">
			<stop  offset="0.0165" style="stop-color:#FF7B41"/>
			<stop  offset="0.1553" style="stop-color:#FF7241"/>
			<stop  offset="0.3856" style="stop-color:#FF5841"/>
			<stop  offset="0.3878" style="stop-color:#FF5841"/>
			<stop  offset="0.7196" style="stop-color:#FF5841"/>
			<stop  offset="0.9959" style="stop-color:#FF7B41"/>
		</linearGradient>
		<path class="st4" d="M424.62,122.01c-3.22-16.35-8.98-31.74-16.86-45.73C382.1,30.69,334.11,0,279.13,0
			c-81.99,0-148.45,68.25-148.45,152.44c0,4.25,0.17,8.45,0.5,12.62c0.38,4.81,0.98,9.54,1.79,14.21
			c2.41,10.81,5.52,21.63,9.27,32.26c0,0.01,0.01,0.02,0.01,0.03c8.09,19.72,20.1,37.32,35.02,51.78
			c-20.14-25.01-32.39-57.99-32.39-94.12c0-77.37,56.11-140.25,125.75-141.48c0.7-0.01,1.4-0.02,2.1-0.02
			c32.47,0,62.11,13.4,84.66,35.47c0.06,0.05,0.11,0.09,0.16,0.15c29.8,27.56,48.71,68.69,48.71,114.63
			c0,56.29-28.39,105.36-70.42,131.1c-10.74,7.1-11.62,26.09-11.62,26.09c-0.45,8.76-6,18.68-10.03,24.8
			c-0.7,1.11-1.46,2.24-2.3,3.37c-0.18,0.24-0.37,0.48-0.55,0.73c-0.82,1.11-1.32,1.74-1.32,1.74l-0.03-0.03
			c-0.11,0.13-0.2,0.26-0.31,0.38c0.17-0.15,1.71-1.49,3.94-3.63c4.5-4.3,11.73-11.92,16.32-19.51c2.1-3.46,3.4-6.61,3.87-9.66
			c0,0,0.59-2.72,2.26-6.39c1.95-4.3,5.41-9.89,11.16-13.89c0.01-0.01,0.03-0.02,0.04-0.03c7.85-4.78,15.28-10.26,22.23-16.34
			c36.3-31.77,59.48-80.17,59.48-134.39C429,148.42,427.48,134.94,424.62,122.01z"/>
	</g>
</g>
</svg>
