<svg id="Layer_1" data-name="Layer 1" xmlns="http://www.w3.org/2000/svg" xmlns:xlink="http://www.w3.org/1999/xlink" viewBox="0 0 64.19 99.65"><defs><style>.cls-1{fill:none;}.cls-2{clip-path:url(#clip-path);}.cls-3{fill:#ccc;}.cls-4{clip-path:url(#clip-path-2);}</style><clipPath id="clip-path" transform="translate(-13.91 -0.2)"><path class="cls-1" d="M38.8,41.76s-.08.24,1.13,2.81S43,58.6,43,58.6L34.67,94.4,43,100.27l26.92,1.12,17.25-8.27L84.49,63.35,81.94,5.86,65.07-4.61,39.65,19.28l-4,14.95,3.11,7.54"/></clipPath><clipPath id="clip-path-2" transform="translate(-13.91 -0.2)"><path class="cls-1" d="M38.8,41.76s.57,1.56,1.13,2.81l1.56,5.27S31.35,70.51,12.82,55.56c0,0,4.09-3.41,5.49-5.54C18.32,50,31.18,33.21,38.8,41.76Z"/></clipPath></defs><title>2</title><g class="cls-2"><path class="cls-3" d="M77.32,76.74h0C76,71.76,72.38,66.67,67,62.9c-.14-.09-.28-.18-.41-.28a24.39,24.39,0,0,0-3.71-2.11h0l-3.2-1.36h0L59,58.85c-3.86-1.77-10-6.42-12.13-10.62l-.17-.35h0a13.14,13.14,0,0,1-1.08-3.35v0C42.32,29.24,62.75,18.4,62.75,18.4c-5.58,5.91-8.92,11-10.86,15.29h0c-4.15,9-2,14.09-2,14.09A30,30,0,0,0,69.36,2.6Q68.59,1.36,67.7.2a20.37,20.37,0,0,1-1.39,2.39c-2.1,3.2-6.84,9.18-15.92,15.16,0,0-12.28,6.55-12.25,18.84h0A19.71,19.71,0,0,0,38.66,41h0a7.18,7.18,0,0,1,.14.77c-8.21-3.09-13,3.74-13,3.74-6.16,8.28-11.86,9.58-11.86,9.58a15.67,15.67,0,0,0,11.15,4.6A15.41,15.41,0,0,0,40.13,48.14q.13-.55.23-1.12a18.76,18.76,0,0,0-4,.4h0A24,24,0,0,0,25,53s3.32-9.55,14.93-8.45q.27.63.57,1.25a20.61,20.61,0,0,0,1.35,2.48,33,33,0,0,0,8.64,9.21l.4.28A30,30,0,0,0,56,60.57h0c.57.26,1.15.52,1.71.74l.75.27h0a28.8,28.8,0,0,1,15,13.08h0a16.53,16.53,0,0,1,2,8.76h0a11.72,11.72,0,0,1-.19,1.34h0A14.22,14.22,0,0,1,74,89.62h0a14.33,14.33,0,0,1-27.14-6.42,9,9,0,0,1,.56-4h0c.3-.67,3.13-3,5.9,1,0,0,4.24,6.46,10.87,1,0,0,4.26-3.17,6.56,3.33q0-.37,0-.74c0-7.82-5.38-14.22-12.2-14.75q-.46,0-.92,0c-7.25,0-13.12,6.62-13.12,14.79v0a16.72,16.72,0,0,0,.17,2.38,15.44,15.44,0,0,0,3.75,8.14h0A17.3,17.3,0,0,0,50,95.9h0a16.84,16.84,0,0,0,20.26,1A17.94,17.94,0,0,0,78.09,82,18.31,18.31,0,0,0,77.32,76.74Z" transform="translate(-13.91 -0.2)"/></g><g class="cls-4"><path class="cls-3" d="M77.32,76.74h0C76,71.76,72.38,66.67,67,62.9c-.14-.09-.28-.18-.41-.28a24.39,24.39,0,0,0-3.71-2.11h0l-3.2-1.36h0L59,58.85c-3.86-1.77-10-6.42-12.13-10.62l-.17-.35h0a13.14,13.14,0,0,1-1.08-3.35v0C42.32,29.24,62.75,18.4,62.75,18.4c-5.58,5.91-8.92,11-10.86,15.29h0c-4.15,9-2,14.09-2,14.09A30,30,0,0,0,69.36,2.6Q68.59,1.36,67.7.2a20.37,20.37,0,0,1-1.39,2.39c-2.1,3.2-6.84,9.18-15.92,15.16,0,0-12.28,6.55-12.25,18.84h0A19.71,19.71,0,0,0,38.66,41h0a7.18,7.18,0,0,1,.14.77c-8.21-3.09-13,3.74-13,3.74-6.16,8.28-11.86,9.58-11.86,9.58a15.67,15.67,0,0,0,11.15,4.6A15.41,15.41,0,0,0,40.13,48.14q.13-.55.23-1.12a18.76,18.76,0,0,0-4,.4h0A24,24,0,0,0,25,53s3.32-9.55,14.93-8.45q.27.63.57,1.25a20.61,20.61,0,0,0,1.35,2.48,33,33,0,0,0,8.64,9.21l.4.28A30,30,0,0,0,56,60.57h0c.57.26,1.15.52,1.71.74l.75.27h0a28.8,28.8,0,0,1,15,13.08h0a16.53,16.53,0,0,1,2,8.76h0a11.72,11.72,0,0,1-.19,1.34h0A14.22,14.22,0,0,1,74,89.62h0a14.33,14.33,0,0,1-27.14-6.42,9,9,0,0,1,.56-4h0c.3-.67,3.13-3,5.9,1,0,0,4.24,6.46,10.87,1,0,0,4.26-3.17,6.56,3.33q0-.37,0-.74c0-7.82-5.38-14.22-12.2-14.75q-.46,0-.92,0c-7.25,0-13.12,6.62-13.12,14.79v0a16.72,16.72,0,0,0,.17,2.38,15.44,15.44,0,0,0,3.75,8.14h0A17.3,17.3,0,0,0,50,95.9h0a16.84,16.84,0,0,0,20.26,1A17.94,17.94,0,0,0,78.09,82,18.31,18.31,0,0,0,77.32,76.74Z" transform="translate(-13.91 -0.2)"/></g></svg>