<svg id="Layer_1" data-name="Layer 1" xmlns="http://www.w3.org/2000/svg" viewBox="0 0 100 99.99"><defs><style>.cls-1{fill:#ccc;}</style></defs><title>Untitled-1</title><path class="cls-1" d="M100,50a50.17,50.17,0,0,1-.87,9.35c-.06.32-.12.64-.19,1h0a49.57,49.57,0,0,1-4.36,12.37,50.13,50.13,0,0,1-9,12.48q-.68.69-1.39,1.35l-1.16,0a24.53,24.53,0,0,1-8.79-1.61l-.33-.13-.5-.21A24.15,24.15,0,0,1,68.8,82,23.18,23.18,0,0,1,59,63.13a22.78,22.78,0,0,1,2-9.38h0c.09-.2.18-.39.27-.58a23.19,23.19,0,0,1,2.91-4.57q.56-.69,1.17-1.33a23.83,23.83,0,0,1,3.43-3q-.39.89-.72,1.79h0a27.56,27.56,0,0,0-1,3.35q-.23,1-.37,2a23,23,0,0,0-.25,3.75A18.24,18.24,0,0,0,81,73.15a23.73,23.73,0,0,0,3.64.56l1.09.06.68-.94a48.84,48.84,0,0,0,7.75-17.51q.26-1.18.47-2.39a49.46,49.46,0,0,0,.71-8.36q0-.79,0-1.57-.05-1.79-.24-3.54A48.85,48.85,0,0,0,84.39,13.69,50.2,50.2,0,0,1,93,24.38q1,1.62,1.82,3.32a49.57,49.57,0,0,1,4.45,13.47h0a49.67,49.67,0,0,1,.65,5.29Q100,48.21,100,50Z" transform="translate(0 0)"/><path class="cls-1" d="M93.07,43.18a43.42,43.42,0,0,1-.65,7.53q-.28,1.57-.67,3.1.18-1.73.22-3.49,0-.5,0-1a44.41,44.41,0,0,0-.75-8.17c-.19-1-.41-2-.67-3A43.53,43.53,0,0,0,85.87,26.9a41.86,41.86,0,0,0-36-20.77C26.63,6.13,7.79,25.46,7.79,49.31q0,2.23.22,4.39A43.19,43.19,0,1,1,92.84,38.76q.16,1.54.2,3.11h0C93.06,42.31,93.07,42.74,93.07,43.18Z" transform="translate(0 0)"/><path class="cls-1" d="M76.09,92.65A49.76,49.76,0,0,1,50,100l-1.62,0a32.51,32.51,0,0,1-3.07-6.42c-.16-.45-.31-.9-.44-1.36h0q-.33-1.09-.58-2.2a32.91,32.91,0,0,1-.65-4.07c-.1-1-.15-2.11-.15-3.18a32.65,32.65,0,0,1,11.37-24.8,24.06,24.06,0,0,0,8.38,30.8q.78.51,1.59,1h0l.33.18A23.92,23.92,0,0,0,76.09,92.65Z" transform="translate(0 0)"/><path class="cls-1" d="M75.93,39.37a12,12,0,0,1-.07,1.32,11.33,11.33,0,0,1-.72,2.91,10.4,10.4,0,0,1-.45,1,9.91,9.91,0,0,1-1.2,1.8,8.29,8.29,0,0,0-.32-1.66,8.09,8.09,0,0,0-1.26-2.5,7.76,7.76,0,0,0-1.51-1.53A7.18,7.18,0,0,0,66,39.2a7.17,7.17,0,0,0-3.38.85l0,0h0l-.32.13h0q-1.54.62-3,1.34a46.05,46.05,0,0,0-4.18,2.32h0a46.52,46.52,0,0,0-4,2.81h0A47.28,47.28,0,0,0,32.82,82.85q0,.61,0,1.22,0,1.43.08,2.83.06,1,.16,2,.15,1.45.38,2.88a47.25,47.25,0,0,0,1.34,5.86,50.14,50.14,0,0,1-29.1-24.5A50,50,0,0,1,11.3,18.34,46.91,46.91,0,0,0,7.47,61.56Q8,59.71,8.62,57.92c.11-.31.22-.62.34-.92a46.77,46.77,0,0,1,9.5-15.34l.12-.13.49-.51A37.56,37.56,0,0,1,46,29.23a35.76,35.76,0,0,1,4.69.31v.68l4.2,1,.91-.6,2.06-1.37c-4.23-2.36-12.07-2.75-20.49-.62-6.35,1.6-11.73,4.31-15.1,7.29,3.73-4,10.09-8,17.8-10.56a48.74,48.74,0,0,1,16.76-2.77c6.44.94,11.09,3.4,12.2,6.94h0v0A8.85,8.85,0,0,1,75,34.72,10.92,10.92,0,0,1,75.68,37,11.65,11.65,0,0,1,75.93,39.37Z" transform="translate(0 0)"/></svg>