<svg id="Layer_1" data-name="Layer 1" xmlns="http://www.w3.org/2000/svg" viewBox="0 0 97.81 100"><defs><style>.cls-1{fill:#ccc;}</style></defs><title>3</title><path class="cls-1" d="M27.81,33.85s-5.83-4.53-9.55-1c0,0-7,7.29-9.88,8.26,0,0,12,12,21.21-2.43,0,0-7,21.86-28.5,1,0,0,6.48-1,12-8.1C13.08,31.58,20,23.81,27.81,33.85Z" transform="translate(-1.09)"/><path class="cls-1" d="M28.3,35.47a49.86,49.86,0,0,1-12,4.21S25.55,40.49,28.3,35.47Z" transform="translate(-1.09)"/><path class="cls-1" d="M30.08,42.11s-19.43,35,33.85,33.52c0,0-6.8-7.77-5.83-15.55,0,0,3.89-26.72-19.11-21.7,0,0,10.69,1.46,11.34,14.09,0,0,.49,13.6,2.75,17.33C53.08,69.8,27.65,73.52,30.08,42.11Z" transform="translate(-1.09)"/><rect class="cls-1" x="52.06" y="85.43" width="18.79" height="2.59"/><rect class="cls-1" x="52.06" y="89.8" width="18.79" height="2.59"/><path class="cls-1" d="M71.94,94V96.6H67.07a4.7,4.7,0,0,1-9,0H53.16V94Z" transform="translate(-1.09)"/><path class="cls-1" d="M97.91,27.82a35,35,0,0,0-3.84-10.43A33.68,33.68,0,0,0,64.74,0C46,0,30.89,15.56,30.89,34.76q0,1.45.11,2.88.13,1.64.41,3.24a64,64,0,0,0,2.11,7.36h0a34.88,34.88,0,0,0,8,11.81,34.16,34.16,0,0,1-7.38-21.46c0-17.64,12.79-32,28.67-32.26h.48a27.5,27.5,0,0,1,19.3,8.09l0,0A35.51,35.51,0,0,1,93.72,40.58c0,12.84-6.47,24-16.06,29.89C75.22,72.09,75,76.42,75,76.42a12.79,12.79,0,0,1-2.29,5.65c-.16.25-.33.51-.52.77l-.13.17-.3.4h0l-.07.09s.39-.34.9-.83a24.1,24.1,0,0,0,3.72-4.45,6.09,6.09,0,0,0,.88-2.2,8,8,0,0,1,.51-1.46,7.74,7.74,0,0,1,2.54-3.17h0a36.77,36.77,0,0,0,5.07-3.73A40.6,40.6,0,0,0,98.91,37,42.45,42.45,0,0,0,97.91,27.82Z" transform="translate(-1.09)"/></svg>